<?xml version="1.0" standalone="no"?>
<!DOCTYPE svg PUBLIC "-//W3C//DTD SVG 1.1//EN" "http://www.w3.org/Graphics/SVG/1.1/DTD/svg11.dtd" >
<svg xmlns="http://www.w3.org/2000/svg" xmlns:xlink="http://www.w3.org/1999/xlink" version="1.1">
<metadata></metadata>
<defs>
<font id="barcode_fontregular" horiz-adv-x="342" >
<font-face units-per-em="2048" ascent="1638" descent="-410" />
<missing-glyph horiz-adv-x="258" />
<glyph horiz-adv-x="0" />
<glyph horiz-adv-x="682" />
<glyph unicode=" " horiz-adv-x="258" d="M20 385h13v1636h-13v-1636zM102 385h13v1636h-13v-1636zM166 385h12v1636h-12v-1636zM223 385h13v1636h-13v-1636z" />
<glyph unicode="!" horiz-adv-x="176" d="M20 385h13v1640h-13v-1640zM59 385h13v1640h-13v-1640zM68 274q0 -20 1 -42.5t2 -44t1 -29.5q0 -16 5 -43t7 -27h12q2 0 7.5 26.5t5.5 43.5q0 8 1 29.5t2 44t1 42.5v29h-45v-29zM72 12h37v39h-37v-39zM96 385h58v1640h-58v-1640z" />
<glyph unicode="+" d="M20 387h13v1647h-13v-1647zM90 123h62v-74h43v74h61v37h-61v73h-43v-73h-62v-37zM102 387h15v1647h-15v-1647zM141 387h13v1647h-13v-1647zM223 387h15v1647h-15v-1647zM307 387h12v1647h-12v-1647z" />
<glyph unicode="," d="M20 387h58v1647h-58v-1647zM115 387h12v1647h-12v-1647zM154 39v-84h32v84h-32zM186 387h13v1647h-13v-1647zM223 387h58v1647h-58v-1647zM307 387h12v1647h-12v-1647z" />
<glyph unicode="-" d="M20 387h13v1647h-13v-1647zM72 127h215v33h-215v-33zM102 387h15v1647h-15v-1647zM141 387h13v1647h-13v-1647zM180 387h58v1647h-58v-1647zM262 387h57v1647h-57v-1647z" />
<glyph unicode="." d="M20 387h58v1647h-58v-1647zM141 387h13v1647h-13v-1647zM154 0h32v39h-32v-39zM186 387h13v1647h-13v-1647zM223 387h58v1647h-58v-1647zM307 387h12v1647h-12v-1647z" />
<glyph unicode="0" d="M20 387h13v1647h-13v-1647zM59 387h13v1647h-13v-1647zM72 25l24 -25h133l27 25v256l-27 24h-133l-24 -24v-256zM109 45v215l14 12h82l12 -12v-215l-12 -12h-82zM141 387h58v1647h-58v-1647zM223 387h58v1647h-58v-1647zM307 387h12v1647h-12v-1647z" />
<glyph unicode="1" d="M20 387h58v1647h-58v-1647zM102 387h15v1647h-15v-1647zM117 264h65v-264h35v299h-100v-35zM186 387h13v1647h-13v-1647zM223 387h15v1647h-15v-1647zM262 387h57v1647h-57v-1647z" />
<glyph unicode="2" d="M20 387h13v1647h-13v-1647zM59 387h58v1647h-58v-1647zM90 0h178v35h-139v86l12 16h109l18 23v127l-18 18h-141l-19 -18v-78h37v53q0 4 4 4h6h80l12 -12v-64l-12 -16h-108l-5 -5q-4 -5 -8 -9q-2 -4 -4 -8.5t-2 -6.5v-145zM186 387h13v1647h-13v-1647zM223 387h15v1647 h-15v-1647zM262 387h57v1647h-57v-1647z" />
<glyph unicode="3" d="M20 387h58v1647h-58v-1647zM96 18l21 -18h133l18 18v127q-6 6 -6 15v2v4q0 6 6 12v109l-18 18h-133l-21 -18v-78h33v27q0 23 2 26q0 4 6 4h10h70l12 -12v-80h-106v-31h106v-98l-12 -12h-70l-16 12v51h-35v-78zM102 387h58v1647h-58v-1647zM223 387h15v1647h-15v-1647z M268 387h13v1647h-13v-1647zM307 387h12v1647h-12v-1647z" />
<glyph unicode="4" d="M20 387h13v1647h-13v-1647zM59 387h13v1647h-13v-1647zM78 137h143v-143h35v305h-35v-121h-108v121h-35v-162zM141 387h58v1647h-58v-1647zM223 387h15v1647h-15v-1647zM262 387h57v1647h-57v-1647z" />
<glyph unicode="5" d="M20 387h58v1647h-58v-1647zM84 18l25 -24h129l24 24v129l-24 27h-115v90h139v35h-178v-162h133l12 -16v-76l-12 -12h-82q-2 0 -7 4t-5 8q-2 4 -5 21.5t-1 23.5h-33v-72zM102 387h15v1647h-15v-1647zM180 387h58v1647h-58v-1647zM268 387h13v1647h-13v-1647zM307 387h12 v1647h-12v-1647z" />
<glyph unicode="6" d="M20 387h13v1647h-13v-1647zM59 387h58v1647h-58v-1647zM72 18l24 -24h127l27 24v121l-27 27h-100l-14 -6v88l14 12h76q2 0 7 -4t5 -8q2 -4 4 -21.5t2 -23.5h33v78l-21 18h-133l-24 -25v-256zM109 45v70l14 12h82l12 -12v-70l-12 -12h-82zM180 387h58v1647h-58v-1647z M268 387h13v1647h-13v-1647zM307 387h12v1647h-12v-1647z" />
<glyph unicode="7" d="M20 387h13v1647h-13v-1647zM59 387h13v1647h-13v-1647zM78 203h31q0 6 3 23.5t5 21.5q0 4 5 8t7 4h76l16 -12v-254h35v287l-18 18h-142l-18 -18v-78zM141 387h13v1647h-13v-1647zM180 387h58v1647h-58v-1647zM262 387h57v1647h-57v-1647z" />
<glyph unicode="8" d="M20 387h58v1647h-58v-1647zM61 68q0 -27 16.5 -50.5t51.5 -23.5h88q2 0 11.5 2t11.5 4q14 12 22 21.5t10 18.5t2 19v31q0 31 -5 42t-31 34q20 12 24 27.5t4 31.5q0 10 -1 23.5t-7 22t-19.5 18.5t-15.5 10h-106q-10 0 -18.5 -8t-13.5 -20.5t-7 -25t-2 -18.5q0 -16 3 -32.5 t23 -28.5q-4 -4 -20 -16.5t-21 -38.5v-43zM102 51v58q12 16 30 21t36 5q4 0 14.5 -1t20.5 -4t18 -8t8 -13v-58q0 -10 -7 -15t-17 -8t-21 -3h-14q-29 0 -45 4t-23 22zM102 387h15v1647h-15v-1647zM115 213v12q0 29 15 36t40 7t40 -7t15 -36l-4 -20q-2 -6 -13 -12.5t-15 -8.5 q-2 0 -10.5 -1t-12.5 -1t-12 1t-11 1q-4 2 -11 4t-9 9zM186 387h13v1647h-13v-1647zM223 387h58v1647h-58v-1647zM307 387h12v1647h-12v-1647z" />
<glyph unicode="9" d="M20 387h13v1647h-13v-1647zM59 387h58v1647h-58v-1647zM84 12l18 -18h127q4 0 15.5 7t11.5 11v269l-18 18h-136l-18 -18v-121l12 -17h121v-110l-12 -15h-70l-16 15v57h-35v-78zM123 197v63l12 14h70l12 -14v-63l-12 -13h-70zM186 387h13v1647h-13v-1647zM223 387h58v1647 h-58v-1647zM307 387h12v1647h-12v-1647z" />
<glyph unicode="?" horiz-adv-x="258" d="M20 385h13v1636h-13v-1636zM39 203h35v49l16 14h76l12 -14v-62l-12 -16h-57v-98h34v65h60l14 17v133l-14 12h-144l-20 -18v-82zM102 385h13v1636h-13v-1636zM109 0h32v39h-32v-39zM184 385h13v1636h-13v-1636zM223 385h13v1636h-13v-1636z" />
<glyph unicode="A" d="M20 387h58v1647h-58v-1647zM61 6h41l35 96h80l29 -96h45l-98 305h-39zM102 387h15v1647h-15v-1647zM141 387h13v1647h-13v-1647zM147 145q4 10 12.5 39t16.5 39q10 -14 18.5 -40.5t10.5 -37.5h-58zM223 387h15v1647h-15v-1647zM262 387h57v1647h-57v-1647z" />
<glyph unicode="B" d="M20 387h13v1647h-13v-1647zM59 387h58v1647h-58v-1647zM102 6h136q29 0 43 30t14 52q0 23 -8 46.5t-37 31.5q14 16 23.5 30.5t9.5 36.5q0 18 -9.5 45t-35.5 27h-136v-299zM141 45v94h76q23 0 31 -17.5t8 -33.5q0 -10 -5 -26.5t-22 -16.5h-88zM141 184v82h82 q16 0 18.5 -14t2.5 -25v-18q-4 -4 -13.5 -14.5t-13.5 -10.5h-76zM141 387h13v1647h-13v-1647zM223 387h15v1647h-15v-1647zM262 387h57v1647h-57v-1647z" />
<glyph unicode="C" d="M20 387h58v1647h-58v-1647zM78 18l12 -12h154l12 12v84h-33q0 -6 -2 -23.5t-4 -21.5q0 -4 -5 -8t-7 -4h-76l-12 12v203l12 12h76q2 0 7 -4t5 -8q2 -4 4 -21.5t2 -23.5h33v72l-27 24h-127l-24 -24v-269zM102 387h58v1647h-58v-1647zM186 387h13v1647h-13v-1647zM268 387 h13v1647h-13v-1647zM307 387h12v1647h-12v-1647z" />
<glyph unicode="D" d="M20 387h13v1647h-13v-1647zM59 387h13v1647h-13v-1647zM102 387h58v1647h-58v-1647zM109 12h102q10 0 23.5 11.5t24.5 25.5t19.5 28.5t8.5 22.5v121q0 14 -7.5 29.5t-19.5 29t-26.5 22.5t-28.5 9h-96v-299zM147 51v221q4 0 14.5 1t14.5 1q10 0 25.5 -1t21.5 -13 q4 -8 12.5 -22.5t8.5 -16.5v-127l-3 -5t-3 -7q-6 -8 -18.5 -19.5t-14.5 -11.5h-58zM223 387h15v1647h-15v-1647zM262 387h57v1647h-57v-1647z" />
<glyph unicode="E" d="M20 387h58v1647h-58v-1647zM78 6h178v35h-139v115h121v39h-121v75h133v35h-172v-299zM102 387h15v1647h-15v-1647zM141 387h58v1647h-58v-1647zM268 387h13v1647h-13v-1647zM307 387h12v1647h-12v-1647z" />
<glyph unicode="F" d="M20 387h13v1647h-13v-1647zM59 387h58v1647h-58v-1647zM84 6h35v150h125v39h-121v75h133v35h-172v-299zM141 387h58v1647h-58v-1647zM268 387h13v1647h-13v-1647zM307 387h12v1647h-12v-1647z" />
<glyph unicode="G" d="M20 387h13v1647h-13v-1647zM59 387h13v1647h-13v-1647zM90 31l27 -25h127l24 25v129h-75v-37h36v-66l-12 -12h-76l-12 12v203l12 12h76q2 0 7 -4t5 -8q2 -4 5.5 -21.5t3.5 -23.5h30v78l-18 18h-127q-8 0 -20.5 -11t-12.5 -13v-256zM102 387h15v1647h-15v-1647zM180 387 h58v1647h-58v-1647zM262 387h57v1647h-57v-1647z" />
<glyph unicode="H" d="M20 387h58v1647h-58v-1647zM72 0h34v139h109v-139h35v305h-35v-121h-109v121h-34v-305zM102 387h15v1647h-15v-1647zM141 387h13v1647h-13v-1647zM223 387h58v1647h-58v-1647zM307 387h12v1647h-12v-1647z" />
<glyph unicode="I" d="M20 387h13v1647h-13v-1647zM59 387h58v1647h-58v-1647zM141 387h13v1647h-13v-1647zM160 0h33v305h-33v-305zM223 387h58v1647h-58v-1647zM307 387h12v1647h-12v-1647z" />
<glyph unicode="J" d="M20 387h13v1647h-13v-1647zM53 25l25 -25h139l12 12v293h-34v-254l-15 -12h-78q-2 0 -6 4t-6 8t-4 21.5t-2 23.5h-31v-71zM59 387h13v1647h-13v-1647zM102 387h58v1647h-58v-1647zM223 387h58v1647h-58v-1647zM307 387h12v1647h-12v-1647z" />
<glyph unicode="K" d="M20 387h58v1647h-58v-1647zM84 0h35v115q0 2 10 12t16 14l3 2q4 2 6 2v-6q2 0 6 -7t6 -11q4 -6 13 -21.5t19.5 -33t18.5 -33t12 -21.5l7 -12h49q-4 6 -17.5 26.5t-27 43t-25.5 43t-16 26.5q-4 4 -10.5 19.5t-8.5 19.5l-1 1q-1 1 -1 3l2 2l90 125h-45l-30 -45 q-10 -12 -17.5 -22.5t-14.5 -19.5t-17.5 -18t-26.5 -24v125h-35v-305zM102 387h15v1647h-15v-1647zM141 387h13v1647h-13v-1647zM186 387h13v1647h-13v-1647zM262 387h57v1647h-57v-1647z" />
<glyph unicode="L" d="M20 387h13v1647h-13v-1647zM59 387h58v1647h-58v-1647zM129 0h178v35h-143v270h-35v-305zM141 387h13v1647h-13v-1647zM186 387h13v1647h-13v-1647zM262 387h57v1647h-57v-1647z" />
<glyph unicode="M" d="M20 0h35v223q6 -6 11 -14l81 -209h46q2 6 13 36t23.5 63.5t23.5 62t15 35.5q2 4 7.5 13t9.5 13v-223h34v305h-51l-5 -10l-7 -14q-4 -12 -16.5 -43t-25.5 -66t-24.5 -65.5t-15.5 -43.5h-8l-4 11q-4 10 -8 14q-2 6 -12.5 32.5t-21.5 57.5t-22.5 56.5t-13.5 31.5l-18 39h-46 v-305zM20 387h58v1647h-58v-1647zM102 387h58v1647h-58v-1647zM186 387h13v1647h-13v-1647zM223 387h15v1647h-15v-1647zM307 387h12v1647h-12v-1647z" />
<glyph unicode="N" d="M20 387h13v1647h-13v-1647zM59 387h13v1647h-13v-1647zM84 0h35v203l10 -6l109 -197h24v305h-35v-196l-104 190q-4 8 -9 7t-14 -1h-16v-305zM102 387h58v1647h-58v-1647zM186 387h13v1647h-13v-1647zM262 387h57v1647h-57v-1647z" />
<glyph unicode="O" d="M20 387h58v1647h-58v-1647zM84 31l25 -25h129l24 25v248l-24 26h-129l-25 -26v-248zM102 387h15v1647h-15v-1647zM123 57v197l12 12h76l12 -12v-197l-12 -12h-76zM141 387h58v1647h-58v-1647zM223 387h15v1647h-15v-1647zM307 387h12v1647h-12v-1647z" />
<glyph unicode="P" d="M20 387h13v1647h-13v-1647zM59 387h58v1647h-58v-1647zM78 6h35v125h98l51 53v82l-39 39h-145v-299zM123 172v94h88l12 -12v-64l-18 -18h-82zM141 387h58v1647h-58v-1647zM223 387h15v1647h-15v-1647zM307 387h12v1647h-12v-1647z" />
<glyph unicode="Q" d="M20 387h13v1647h-13v-1647zM59 387h13v1647h-13v-1647zM78 33l24 -27h115q8 4 13.5 5t13.5 1h6q2 0 12 -5t12 -7h5h2q2 0 4 5t2 7l2 4l-2 2l-29 21v242l-29 24h-127l-24 -24v-248zM102 387h15v1647h-15v-1647zM117 57v197l12 12h76l12 -12v-184q-8 4 -17.5 12t-17.5 8h-2 v-2q-2 0 -4 -4t-2 -8q-2 0 -2 -2q0 -4 2 -4q2 -2 11.5 -9.5t13.5 -9.5q0 -2 3 -4l3 -2h-76zM141 387h58v1647h-58v-1647zM262 387h57v1647h-57v-1647z" />
<glyph unicode="R" d="M20 387h58v1647h-58v-1647zM72 6h34v119q4 0 24 5t24 3t13 -11l13 -13l49 -103h41q0 35 -25.5 71t-45.5 62q16 23 33.5 35t17.5 47q0 8 -2 21.5t-8.5 28t-14.5 24.5t-20 10h-133v-299zM102 387h15v1647h-15v-1647zM109 178v88h90q6 0 9 -7t4 -16.5t1 -17.5v-8 q0 -4 -1 -12l-1 -8l-18 -19h-84zM141 387h13v1647h-13v-1647zM180 387h58v1647h-58v-1647zM307 387h12v1647h-12v-1647z" />
<glyph unicode="S" d="M20 387h13v1647h-13v-1647zM59 387h58v1647h-58v-1647zM84 25l18 -19h148l12 12v148l-18 20h-109l-12 17v57l12 12h76q2 0 7 -4t5 -8q2 -4 5 -21.5t1 -23.5h33v78l-12 12h-141l-25 -26v-107l18 -22h109l12 -17v-76l-12 -12h-76q-2 0 -7 4t-5 8q-2 4 -5 21.5t-1 23.5h-33 v-77zM141 387h13v1647h-13v-1647zM180 387h58v1647h-58v-1647zM307 387h12v1647h-12v-1647z" />
<glyph unicode="T" d="M20 387h13v1647h-13v-1647zM59 387h13v1647h-13v-1647zM84 270h74v-264h37v264h73v35h-184v-35zM102 387h58v1647h-58v-1647zM180 387h58v1647h-58v-1647zM307 387h12v1647h-12v-1647z" />
<glyph unicode="U" d="M20 387h58v1647h-58v-1647zM90 25l19 -19h141l18 19v280h-35v-248l-16 -12h-76l-16 12v248h-35v-280zM141 387h13v1647h-13v-1647zM186 387h13v1647h-13v-1647zM223 387h15v1647h-15v-1647zM262 387h57v1647h-57v-1647z" />
<glyph unicode="V" d="M20 387h13v1647h-13v-1647zM41 305l106 -299h48l102 299h-49l-76 -244l-82 244h-49zM102 387h58v1647h-58v-1647zM186 387h13v1647h-13v-1647zM223 387h15v1647h-15v-1647zM262 387h57v1647h-57v-1647z" />
<glyph unicode="W" d="M20 387h58v1647h-58v-1647zM33 305q0 -72 20.5 -152.5t36.5 -146.5q2 -8 10.5 -7t12.5 1h16q2 4 6 21.5t6 23.5q2 8 7.5 32.5t9.5 52.5t9 52.5t7 34.5q2 -10 6 -34.5t8.5 -52.5t9.5 -52.5t7 -32.5q2 -10 7 -27l5 -18h33l6 12l6 27t14.5 63.5t16.5 75.5t14 64q6 33 6 63 h-32q0 -6 -2.5 -28.5t-4.5 -28.5q-4 -18 -9 -47t-9 -56.5t-8 -47t-4 -21.5l-6 -13q-2 4 -4.5 13.5t-4.5 11.5q-2 12 -7 41t-11 61.5t-11 61.5t-7 41q-8 12 -19 12q-16 0 -20 -18l-45 -224q-4 8 -7.5 18.5t-5.5 20.5q-8 41 -18 98.5t-12 104.5h-33zM141 387h58v1647h-58 v-1647zM223 387h15v1647h-15v-1647zM268 387h13v1647h-13v-1647zM307 387h12v1647h-12v-1647z" />
<glyph unicode="X" d="M20 387h13v1647h-13v-1647zM90 0h39l6 12q2 4 7 18.5t12.5 30t12.5 29.5t7 19q0 2 2 7t4 5h2h4l47 -121q0 -2 17.5 -1t21.5 1l-4 6l-51 133v33q0 2 17.5 43t41.5 90h-38l-54 -127l-49 125h-45l57 -131v-18v-15zM102 387h15v1647h-15v-1647zM141 387h58v1647h-58v-1647z M223 387h15v1647h-15v-1647zM262 387h57v1647h-57v-1647z" />
<glyph unicode="Y" d="M20 387h58v1647h-58v-1647zM78 166l12 -12l62 -15v-139h36v139q6 2 28 6.5t28 8.5q4 0 8 5t4 7v133h-35v-115h-108v115h-35v-133zM141 387h13v1647h-13v-1647zM180 387h58v1647h-58v-1647zM268 387h13v1647h-13v-1647zM307 387h12v1647h-12v-1647z" />
<glyph unicode="Z" d="M20 387h13v1647h-13v-1647zM84 270h133l-131 -231v-39h176v35h-127l127 231v39h-178v-35zM102 387h58v1647h-58v-1647zM180 387h58v1647h-58v-1647zM268 387h13v1647h-13v-1647zM307 387h12v1647h-12v-1647z" />
<glyph unicode="a" d="M20 387h58v1647h-58v-1647zM61 6h41l35 96h74q2 0 6 -8l6 -12q4 -8 13.5 -37t13.5 -39h41l-98 305h-39zM102 387h15v1647h-15v-1647zM141 387h13v1647h-13v-1647zM147 145q2 6 4.5 18.5t5.5 26t8 23.5t11 10t11.5 -10t8.5 -23.5t6 -25.5t3 -19h-58zM223 387h15v1647h-15 v-1647zM262 387h57v1647h-57v-1647z" />
<glyph unicode="b" d="M20 387h13v1647h-13v-1647zM59 387h58v1647h-58v-1647zM102 6h136q29 0 43 30t14 52q0 23 -8 46.5t-37 31.5q14 16 23.5 30.5t9.5 36.5q0 18 -9.5 45t-35.5 27h-136v-299zM141 45v94h76q23 0 31 -17.5t8 -33.5q0 -10 -5 -26.5t-22 -16.5h-88zM141 184v82h82 q16 0 18.5 -14t2.5 -25v-18q-4 -4 -13.5 -14.5t-13.5 -10.5h-76zM141 387h13v1647h-13v-1647zM223 387h15v1647h-15v-1647zM262 387h57v1647h-57v-1647z" />
<glyph unicode="c" d="M20 387h58v1647h-58v-1647zM78 18l12 -12h154l12 12v84h-33q0 -6 -2 -23.5t-4 -21.5q0 -4 -5 -8t-7 -4h-76l-12 12v203l12 12h76q2 0 7 -4t5 -8q2 -4 4 -21.5t2 -23.5h33v72l-27 24h-127l-24 -24v-269zM102 387h58v1647h-58v-1647zM186 387h13v1647h-13v-1647zM268 387 h13v1647h-13v-1647zM307 387h12v1647h-12v-1647z" />
<glyph unicode="d" d="M20 387h13v1647h-13v-1647zM59 387h13v1647h-13v-1647zM102 387h58v1647h-58v-1647zM109 12h102q10 0 23.5 11.5t24.5 25.5t19.5 28.5t8.5 22.5v121q0 14 -7.5 29.5t-19.5 29t-26.5 22.5t-28.5 9h-96v-299zM147 51v221q4 0 14.5 1t14.5 1q10 0 25.5 -1t21.5 -13 q4 -8 12.5 -22.5t8.5 -16.5v-127l-3 -5t-3 -7q-6 -8 -18.5 -19.5t-14.5 -11.5h-58zM223 387h15v1647h-15v-1647zM262 387h57v1647h-57v-1647z" />
<glyph unicode="e" d="M20 387h58v1647h-58v-1647zM78 6h178v35h-139v115h121v39h-121v75h133v35h-172v-299zM102 387h15v1647h-15v-1647zM141 387h58v1647h-58v-1647zM268 387h13v1647h-13v-1647zM307 387h12v1647h-12v-1647z" />
<glyph unicode="f" d="M20 387h13v1647h-13v-1647zM59 387h58v1647h-58v-1647zM84 6h35v150h125v39h-121v75h133v35h-172v-299zM141 387h58v1647h-58v-1647zM268 387h13v1647h-13v-1647zM307 387h12v1647h-12v-1647z" />
<glyph unicode="g" d="M20 387h13v1647h-13v-1647zM59 387h13v1647h-13v-1647zM90 31l27 -25h127l24 25v129h-75v-37h36v-66l-12 -12h-76l-12 12v203l12 12h76q2 0 7 -4t5 -8q2 -4 5.5 -21.5t3.5 -23.5h30v78l-18 18h-127q-8 0 -20.5 -11t-12.5 -13v-256zM102 387h15v1647h-15v-1647zM180 387 h58v1647h-58v-1647zM262 387h57v1647h-57v-1647z" />
<glyph unicode="h" d="M20 387h58v1647h-58v-1647zM72 0h34v139h109v-139h35v305h-35v-121h-109v121h-34v-305zM102 387h15v1647h-15v-1647zM141 387h13v1647h-13v-1647zM223 387h58v1647h-58v-1647zM307 387h12v1647h-12v-1647z" />
<glyph unicode="i" d="M20 387h13v1647h-13v-1647zM59 387h58v1647h-58v-1647zM141 387h13v1647h-13v-1647zM160 0h33v305h-33v-305zM223 387h58v1647h-58v-1647zM307 387h12v1647h-12v-1647z" />
<glyph unicode="j" d="M20 387h13v1647h-13v-1647zM53 25l25 -25h139l12 12v293h-34v-254l-15 -12h-78q-2 0 -6 4t-6 8t-4 21.5t-2 23.5h-31v-71zM59 387h13v1647h-13v-1647zM102 387h58v1647h-58v-1647zM223 387h58v1647h-58v-1647zM307 387h12v1647h-12v-1647z" />
<glyph unicode="k" d="M20 387h58v1647h-58v-1647zM82 0h35v115q0 2 10 12t16 14l3 2q4 2 6 2v-6q2 0 6 -7t6 -11q4 -6 13 -21.5t19.5 -33t18.5 -33t12 -21.5l6 -12h50q-4 6 -17.5 26.5t-27 43t-25.5 43t-16 26.5q-4 4 -10.5 19.5t-8.5 19.5l-1 1q-1 1 -1 3l2 2l90 125h-45l-30 -45 q-10 -12 -17.5 -22.5t-14.5 -19.5t-17.5 -18t-26.5 -24v125h-35v-305zM102 387h15v1647h-15v-1647zM141 387h13v1647h-13v-1647zM186 387h13v1647h-13v-1647zM262 387h57v1647h-57v-1647z" />
<glyph unicode="l" d="M20 387h13v1647h-13v-1647zM59 387h58v1647h-58v-1647zM129 0h178v35h-143v270h-35v-305zM141 387h13v1647h-13v-1647zM186 387h13v1647h-13v-1647zM262 387h57v1647h-57v-1647z" />
<glyph unicode="m" d="M20 6h35v217q6 -6 11 -14q4 -10 16 -38t24.5 -59.5t24.5 -59t16 -40.5q2 -8 10.5 -7t12.5 1q14 0 18.5 3t10.5 16q2 6 12 31.5t21.5 55t21.5 54t14 31.5q2 4 7.5 13t9.5 13v-223h34v305h-51l-5 -10l-7 -14q-4 -12 -16.5 -43t-25.5 -66t-24.5 -65.5t-15.5 -43.5h-8l-4 11 q-4 10 -8 14q-2 6 -12.5 32.5t-21.5 57.5t-22.5 56.5t-13.5 31.5q-4 10 -11 24l-7 15h-46v-299zM20 387h58v1647h-58v-1647zM102 387h58v1647h-58v-1647zM186 387h13v1647h-13v-1647zM223 387h15v1647h-15v-1647zM307 387h12v1647h-12v-1647z" />
<glyph unicode="n" d="M20 387h13v1647h-13v-1647zM59 387h13v1647h-13v-1647zM84 0h35v203l10 -6l109 -197h24v305h-35v-196l-104 190q-4 8 -9 7t-14 -1h-16v-305zM102 387h58v1647h-58v-1647zM186 387h13v1647h-13v-1647zM262 387h57v1647h-57v-1647z" />
<glyph unicode="o" d="M20 387h58v1647h-58v-1647zM84 31l25 -25h129l24 25v248l-24 26h-129l-25 -26v-248zM102 387h15v1647h-15v-1647zM123 57v197l12 12h76l12 -12v-197l-12 -12h-76zM141 387h58v1647h-58v-1647zM223 387h15v1647h-15v-1647zM307 387h12v1647h-12v-1647z" />
<glyph unicode="p" d="M20 387h13v1647h-13v-1647zM59 387h58v1647h-58v-1647zM78 6h35v125h98l51 53v82l-39 39h-145v-299zM123 172v94h88l12 -12v-64l-18 -18h-82zM141 387h58v1647h-58v-1647zM223 387h15v1647h-15v-1647zM307 387h12v1647h-12v-1647z" />
<glyph unicode="q" d="M20 387h13v1647h-13v-1647zM59 387h13v1647h-13v-1647zM78 33l24 -27h115q8 4 13.5 5t13.5 1h6q2 0 12 -5t12 -7h5h2q2 0 4 5t2 7l2 4l-2 2l-29 21v242l-29 24h-127l-24 -24v-248zM102 387h15v1647h-15v-1647zM117 57v197l12 12h76l12 -12v-184q-8 4 -17.5 12t-17.5 8h-2 v-2q-2 0 -4 -4t-2 -8q-2 0 -2 -2q0 -4 2 -4q2 -2 11.5 -9.5t13.5 -9.5q0 -2 3 -4l3 -2h-76zM141 387h58v1647h-58v-1647zM262 387h57v1647h-57v-1647z" />
<glyph unicode="r" d="M20 387h58v1647h-58v-1647zM72 6h34v119q4 0 24 5t24 3t13 -11l13 -13l49 -103h41q0 35 -25.5 71t-45.5 62q16 23 33.5 35t17.5 47q0 8 -2 21.5t-8.5 28t-14.5 24.5t-20 10h-133v-299zM102 387h15v1647h-15v-1647zM109 178v88h90q6 0 9 -7t4 -16.5t1 -17.5v-8 q0 -4 -1 -12l-1 -8l-18 -19h-84zM141 387h13v1647h-13v-1647zM180 387h58v1647h-58v-1647zM307 387h12v1647h-12v-1647z" />
<glyph unicode="s" d="M20 387h13v1647h-13v-1647zM59 387h58v1647h-58v-1647zM84 25l18 -19h148l12 12v148l-18 20h-109l-12 17v57l12 12h76q2 0 7 -4t5 -8q2 -4 5 -21.5t1 -23.5h33v78l-12 12h-141l-25 -26v-107l18 -22h109l12 -17v-76l-12 -12h-76q-2 0 -7 4t-5 8q-2 4 -5 21.5t-1 23.5h-33 v-77zM141 387h13v1647h-13v-1647zM180 387h58v1647h-58v-1647zM307 387h12v1647h-12v-1647z" />
<glyph unicode="t" d="M20 387h13v1647h-13v-1647zM59 387h13v1647h-13v-1647zM84 270h74v-264h37v264h73v35h-184v-35zM102 387h58v1647h-58v-1647zM180 387h58v1647h-58v-1647zM307 387h12v1647h-12v-1647z" />
<glyph unicode="u" d="M20 387h58v1647h-58v-1647zM90 25l19 -19h141l18 19v280h-35v-248l-16 -12h-76l-16 12v248h-35v-280zM141 387h13v1647h-13v-1647zM186 387h13v1647h-13v-1647zM223 387h15v1647h-15v-1647zM262 387h57v1647h-57v-1647z" />
<glyph unicode="v" d="M20 387h13v1647h-13v-1647zM39 305l106 -299h48l102 299h-49l-76 -244l-82 244h-49zM102 387h58v1647h-58v-1647zM186 387h13v1647h-13v-1647zM223 387h15v1647h-15v-1647zM262 387h57v1647h-57v-1647z" />
<glyph unicode="w" d="M20 387h58v1647h-58v-1647zM33 305q0 -72 20.5 -152.5t36.5 -146.5q2 -8 10.5 -7t12.5 1h16q2 4 6 21.5t6 23.5q2 8 7.5 32.5t9.5 52.5t9 52.5t7 34.5q2 -10 6 -34.5t8.5 -52.5t9.5 -52.5t7 -32.5q2 -10 7 -27l5 -18h33l6 12l6 27t14.5 63.5t16.5 75.5t14 64q6 33 6 63 h-32q0 -6 -2.5 -28.5t-4.5 -28.5q-4 -18 -9 -47t-9 -56.5t-8 -47t-4 -21.5l-6 -13q-2 4 -4.5 13.5t-4.5 11.5q-2 12 -7 41t-11 61.5t-11 61.5t-7 41q-8 12 -19 12q-16 0 -20 -18l-45 -224q-4 8 -7.5 18.5t-5.5 20.5q-8 41 -18 98.5t-12 104.5h-33zM141 387h58v1647h-58 v-1647zM223 387h15v1647h-15v-1647zM268 387h13v1647h-13v-1647zM307 387h12v1647h-12v-1647z" />
<glyph unicode="x" d="M20 387h13v1647h-13v-1647zM86 0h39l6 12q2 4 7 18.5t12.5 30t12.5 29.5t7 19q0 2 2 7t4 5h2h4l47 -121q0 -2 17.5 -1t21.5 1l-4 6l-51 133v33q0 2 17.5 43t41.5 90h-39l-53 -127l-49 125h-45l57 -131v-18v-15zM102 387h15v1647h-15v-1647zM141 387h58v1647h-58v-1647z M223 387h15v1647h-15v-1647zM262 387h57v1647h-57v-1647z" />
<glyph unicode="y" d="M20 387h58v1647h-58v-1647zM78 166l12 -12l62 -15v-139h36v139q6 2 28 6.5t28 8.5q4 0 8 5t4 7v133h-35v-115h-108v115h-35v-133zM141 387h13v1647h-13v-1647zM180 387h58v1647h-58v-1647zM268 387h13v1647h-13v-1647zM307 387h12v1647h-12v-1647z" />
<glyph unicode="z" d="M20 387h13v1647h-13v-1647zM78 270h133l-131 -231v-39h176v35h-127l127 231v39h-178v-35zM102 387h58v1647h-58v-1647zM180 387h58v1647h-58v-1647zM268 387h13v1647h-13v-1647zM307 387h12v1647h-12v-1647z" />
<glyph unicode="&#xa0;" horiz-adv-x="258" d="M20 385h13v1636h-13v-1636zM102 385h13v1636h-13v-1636zM166 385h12v1636h-12v-1636zM223 385h13v1636h-13v-1636z" />
<glyph unicode="&#xad;" d="M20 387h13v1647h-13v-1647zM72 127h215v33h-215v-33zM102 387h15v1647h-15v-1647zM141 387h13v1647h-13v-1647zM180 387h58v1647h-58v-1647zM262 387h57v1647h-57v-1647z" />
<glyph unicode="&#xc4;" d="M20 387h58v1647h-58v-1647zM61 6h41l35 96h74q2 0 6 -8l6 -12q4 -8 13.5 -37t13.5 -39h41l-98 305h-39zM82 272h33v39h-33v-39zM102 387h15v1647h-15v-1647zM141 387h13v1647h-13v-1647zM147 145q4 10 12.5 39t16.5 54l29 -93h-58zM223 387h15v1647h-15v-1647zM236 272 h32v39h-32v-39zM262 387h57v1647h-57v-1647z" />
<glyph unicode="&#xd6;" d="M20 387h58v1647h-58v-1647zM55 270h33v39h-33v-39zM84 31l25 -25h129l24 25v219l-24 26h-129l-25 -26v-219zM102 387h15v1647h-15v-1647zM123 57v168l12 13h76l12 -13v-168l-12 -12h-76zM141 387h58v1647h-58v-1647zM223 387h15v1647h-15v-1647zM256 270h33v39h-33v-39z M307 387h12v1647h-12v-1647z" />
<glyph unicode="&#xdc;" d="M20 387h58v1647h-58v-1647zM90 25l19 -19h141l18 19v196h-35v-164l-16 -12h-76l-16 12v164h-35v-196zM92 272h33v39h-33v-39zM141 387h13v1647h-13v-1647zM186 387h13v1647h-13v-1647zM223 387h15v1647h-15v-1647zM236 270h32v39h-32v-39zM262 387h57v1647h-57v-1647z " />
<glyph unicode="&#xe4;" d="M20 387h58v1647h-58v-1647zM61 6h41l35 96h74q2 0 6 -8l6 -12q4 -8 13.5 -37t13.5 -39h41l-98 305h-39zM86 272h33v39h-33v-39zM102 387h15v1647h-15v-1647zM141 387h13v1647h-13v-1647zM147 145q4 10 13.5 42t15.5 53l29 -95h-58zM223 387h15v1647h-15v-1647zM225 272 h33v39h-33v-39zM262 387h57v1647h-57v-1647z" />
<glyph unicode="&#xf6;" d="M20 387h58v1647h-58v-1647zM57 270h33v39h-33v-39zM84 31l25 -25h129l24 25v219l-24 26h-129l-25 -26v-219zM102 387h15v1647h-15v-1647zM123 57v168l12 13h76l12 -13v-168l-12 -12h-76zM141 387h58v1647h-58v-1647zM223 387h15v1647h-15v-1647zM258 270h33v39h-33v-39z M307 387h12v1647h-12v-1647z" />
<glyph unicode="&#xfc;" d="M20 387h58v1647h-58v-1647zM90 25l19 -19h141l18 19v215h-35v-183l-16 -12h-76l-16 12v183h-35v-215zM92 272h33v39h-33v-39zM141 387h13v1647h-13v-1647zM186 387h13v1647h-13v-1647zM223 387h15v1647h-15v-1647zM236 272h32v39h-32v-39zM262 387h57v1647h-57v-1647z " />
<glyph unicode="&#x2000;" horiz-adv-x="1019" />
<glyph unicode="&#x2001;" horiz-adv-x="2038" />
<glyph unicode="&#x2002;" horiz-adv-x="1019" />
<glyph unicode="&#x2003;" horiz-adv-x="2038" />
<glyph unicode="&#x2004;" horiz-adv-x="679" />
<glyph unicode="&#x2005;" horiz-adv-x="509" />
<glyph unicode="&#x2006;" horiz-adv-x="339" />
<glyph unicode="&#x2007;" horiz-adv-x="339" />
<glyph unicode="&#x2008;" horiz-adv-x="254" />
<glyph unicode="&#x2009;" horiz-adv-x="407" />
<glyph unicode="&#x200a;" horiz-adv-x="113" />
<glyph unicode="&#x2010;" d="M20 387h13v1647h-13v-1647zM72 127h215v33h-215v-33zM102 387h15v1647h-15v-1647zM141 387h13v1647h-13v-1647zM180 387h58v1647h-58v-1647zM262 387h57v1647h-57v-1647z" />
<glyph unicode="&#x2011;" d="M20 387h13v1647h-13v-1647zM72 127h215v33h-215v-33zM102 387h15v1647h-15v-1647zM141 387h13v1647h-13v-1647zM180 387h58v1647h-58v-1647zM262 387h57v1647h-57v-1647z" />
<glyph unicode="&#x2012;" d="M20 387h13v1647h-13v-1647zM72 127h215v33h-215v-33zM102 387h15v1647h-15v-1647zM141 387h13v1647h-13v-1647zM180 387h58v1647h-58v-1647zM262 387h57v1647h-57v-1647z" />
<glyph unicode="&#x2013;" horiz-adv-x="1067" d="M20 387h45v1647h-45v-1647zM198 127h736v33h-736v-33zM301 387h51v1647h-51v-1647zM434 387h45v1647h-45v-1647zM568 387h199v1647h-199v-1647zM849 387h195v1647h-195v-1647z" />
<glyph unicode="&#x2014;" horiz-adv-x="2091" d="M20 387h89v1647h-89v-1647zM376 127h1473v33h-1473v-33zM582 387h102v1647h-102v-1647zM849 387h89v1647h-89v-1647zM1116 387h397v1647h-397v-1647zM1678 387h390v1647h-390v-1647z" />
<glyph unicode="&#x202f;" horiz-adv-x="407" />
<glyph unicode="&#x205f;" horiz-adv-x="509" />
<glyph unicode="&#x25fc;" horiz-adv-x="2037" d="M0 0v2038h2038v-2038h-2038z" />
</font>
</defs>
</svg>
